<?xml version="1.0" standalone="no"?>
<!DOCTYPE svg PUBLIC "-//W3C//DTD SVG 20010904//EN"
 "http://www.w3.org/TR/2001/REC-SVG-20010904/DTD/svg10.dtd">
<svg version="1.0" xmlns="http://www.w3.org/2000/svg"
 width="1280.000000pt" height="1280.000000pt" viewBox="0 0 1280.000000 1280.000000"
 preserveAspectRatio="xMidYMid meet">
<g transform="translate(0.000000,1280.000000) scale(0.100000,-0.100000)"
fill="#000000" stroke="none">
<path d="M5792 10995 c-129 -42 -211 -93 -332 -210 -52 -50 -109 -101 -126
-113 -27 -19 -34 -33 -49 -99 -15 -65 -16 -88 -6 -148 l12 -70 -34 -30 c-18
-16 -66 -57 -107 -90 -102 -84 -280 -292 -280 -329 0 -8 15 -26 33 -39 30 -23
36 -24 102 -15 144 19 263 76 381 181 36 31 71 57 79 57 41 0 58 -86 28 -143
-9 -18 -20 -58 -24 -90 -6 -48 -13 -64 -46 -100 -80 -87 -123 -189 -123 -295
0 -55 -2 -59 -71 -118 -13 -12 -48 -57 -78 -100 -30 -44 -93 -127 -139 -185
-46 -58 -94 -129 -105 -159 -18 -43 -31 -59 -65 -79 -24 -14 -57 -44 -73 -66
-25 -34 -30 -47 -27 -90 l3 -50 -45 -5 c-39 -4 -45 -8 -48 -30 -7 -53 -126
-139 -192 -140 -14 0 -45 -12 -69 -26 -53 -29 -67 -26 -79 18 -7 25 -4 41 10
68 15 31 16 41 6 75 l-12 40 -6 -49 c-3 -27 -9 -51 -15 -53 -15 -4 -89 137
-77 149 13 13 43 3 70 -23 26 -24 27 -16 7 42 -19 53 -61 99 -91 99 -14 0 -37
-17 -62 -47 -27 -32 -44 -45 -50 -38 -5 6 -71 219 -147 475 -138 470 -213 705
-280 884 l-37 98 21 22 c39 41 18 93 -32 81 -67 -17 -92 -105 -33 -115 l29 -5
62 -250 c69 -277 334 -1183 420 -1433 30 -88 55 -169 55 -180 0 -10 -16 -40
-35 -65 -19 -25 -40 -58 -45 -72 -14 -38 -12 -126 5 -155 8 -14 14 -35 15 -47
0 -11 21 -48 46 -82 50 -67 73 -75 130 -46 24 11 37 12 66 3 55 -16 104 12
143 82 24 44 42 61 90 88 33 18 67 31 77 28 12 -3 37 12 70 40 29 24 58 44 65
44 7 0 20 -12 30 -27 23 -38 43 -53 69 -53 22 0 188 60 200 73 4 3 12 35 18
69 l11 63 63 21 c69 24 62 20 185 122 117 97 158 124 242 156 96 36 98 35 89
-20 -5 -35 -3 -48 9 -57 30 -23 7 -64 -97 -176 -115 -123 -199 -227 -206 -256
-4 -12 -20 -25 -40 -31 -19 -6 -48 -27 -64 -47 -18 -21 -44 -38 -63 -42 -18
-4 -41 -17 -50 -29 -10 -12 -31 -31 -48 -41 -51 -32 -93 -82 -105 -124 -8 -32
-16 -42 -38 -47 -68 -15 -93 -28 -158 -83 -71 -61 -156 -152 -232 -250 -86
-111 -254 -291 -271 -291 -26 0 -81 -62 -81 -92 0 -14 -7 -31 -15 -38 -8 -7
-15 -17 -15 -23 0 -5 -22 -39 -49 -76 -68 -92 -83 -127 -87 -193 -1 -32 -5
-62 -9 -68 -12 -20 17 -110 54 -167 44 -68 116 -145 210 -225 l66 -56 2 -194
c2 -254 18 -325 94 -405 l51 -54 -2 -67 c-4 -134 -2 -151 26 -177 34 -31 30
-75 -8 -93 -29 -13 -40 -36 -13 -26 8 4 15 1 15 -5 0 -6 -4 -11 -10 -11 -5 0
-10 -11 -10 -24 0 -13 -18 -61 -39 -107 -22 -46 -48 -111 -59 -144 -27 -81
-50 -132 -62 -140 -5 -3 -10 -13 -10 -22 0 -8 -16 -66 -36 -129 l-36 -114 -64
-31 c-36 -18 -75 -44 -87 -58 -12 -15 -42 -41 -67 -58 -25 -17 -94 -73 -155
-125 -113 -97 -336 -258 -358 -258 -11 0 -63 -27 -187 -97 -83 -46 -372 -176
-485 -217 -55 -20 -127 -48 -160 -63 -100 -42 -478 -136 -545 -135 l-35 0 35
-16 c22 -11 36 -25 38 -40 7 -47 42 -52 304 -51 330 1 456 23 732 128 60 22
114 41 120 41 6 0 31 11 56 24 25 13 77 33 116 44 39 12 88 36 110 53 21 17
62 42 89 56 55 28 83 44 481 282 192 114 274 169 282 187 7 14 26 30 42 36 17
5 30 14 30 19 0 4 9 13 19 18 18 10 19 6 16 -82 -3 -111 -22 -186 -55 -222
-13 -14 -49 -40 -80 -57 -30 -17 -93 -54 -139 -82 -78 -47 -106 -56 -181 -57
-27 -1 -133 -43 -286 -114 -200 -93 -563 -246 -714 -300 -179 -65 -567 -195
-655 -220 -33 -9 -80 -23 -103 -31 -46 -14 -185 -38 -285 -49 -96 -11 -89 -39
25 -106 109 -64 179 -97 279 -130 186 -62 348 -42 799 98 63 19 187 63 275 98
157 62 227 93 670 300 434 202 918 421 1120 505 50 21 232 102 405 180 173 78
383 171 465 207 83 35 229 104 325 153 96 48 220 107 275 130 55 23 149 69
208 103 85 47 111 67 121 92 20 46 141 182 509 569 37 39 83 94 101 121 32 47
58 76 107 118 20 18 20 20 3 38 -9 10 -41 31 -71 45 -48 24 -62 26 -122 21
-54 -4 -80 -13 -127 -41 -32 -20 -65 -36 -72 -36 -6 0 -22 -11 -34 -25 -12
-14 -27 -25 -34 -25 -6 0 -34 -18 -60 -40 -27 -23 -59 -43 -71 -46 -12 -3 -29
-17 -38 -30 -8 -13 -21 -24 -28 -24 -6 0 -25 -14 -42 -30 -16 -17 -66 -60
-110 -95 -44 -36 -96 -81 -115 -100 -20 -20 -73 -51 -125 -74 -148 -64 -209
-97 -235 -126 -39 -42 -193 -142 -320 -209 -196 -101 -409 -206 -420 -206 -19
0 -10 26 19 54 32 31 51 90 51 160 0 43 2 46 55 81 64 43 70 59 61 156 l-6 69
100 75 c56 41 133 94 173 117 211 122 537 363 842 620 79 67 107 97 124 135
12 26 31 66 43 88 12 22 30 57 41 79 25 47 26 112 4 159 -13 27 -28 40 -64 53
-115 44 -238 7 -347 -104 -32 -33 -64 -68 -69 -78 -16 -31 -109 -118 -152
-144 -37 -23 -104 -75 -215 -168 -25 -21 -71 -57 -102 -80 -31 -23 -73 -61
-93 -86 -34 -40 -219 -166 -244 -166 -7 0 -11 24 -11 61 0 54 -4 66 -40 119
l-40 59 20 50 c11 28 33 75 51 105 l31 55 -17 56 c-14 51 -25 66 -69 103 -20
16 -20 20 3 57 14 23 36 36 99 58 68 24 87 35 114 70 51 64 106 111 149 125
25 9 54 31 77 59 56 68 189 129 332 153 39 7 62 6 78 -2 20 -10 27 -8 57 22
19 19 35 37 35 41 0 4 24 57 53 117 59 120 111 204 151 241 14 14 26 34 26 46
0 12 11 32 26 45 14 14 48 67 76 118 27 51 66 108 85 125 39 35 70 97 83 167
5 25 18 79 29 120 12 41 21 89 21 105 1 24 14 41 65 85 69 59 109 125 140 235
10 33 51 166 92 295 41 129 77 241 79 249 5 15 13 14 159 -17 50 -11 115 -23
145 -26 39 -5 101 -30 210 -83 139 -68 163 -76 235 -83 89 -9 140 -26 169 -59
14 -15 31 -21 59 -21 31 0 51 -9 91 -39 28 -22 65 -43 81 -47 17 -4 58 -32 93
-62 35 -30 80 -60 100 -67 33 -12 38 -18 43 -53 8 -63 23 -74 85 -66 51 6 54
5 84 -30 19 -21 41 -36 55 -36 14 0 49 -25 96 -70 41 -38 77 -70 81 -70 3 0
24 -15 47 -34 25 -21 57 -37 83 -41 24 -4 55 -14 70 -21 33 -17 72 -18 97 -2
16 9 27 8 59 -6 45 -21 87 -16 126 15 28 22 33 38 48 179 15 150 14 170 -20
238 l-31 62 57 68 c31 37 80 92 108 122 28 30 80 88 115 129 35 41 98 111 139
155 101 109 830 902 904 985 33 36 95 104 138 150 l79 85 35 -13 c64 -23 130
6 148 64 3 12 -3 45 -13 75 -17 49 -23 55 -67 72 -26 11 -58 17 -71 13 -19 -4
-22 -10 -16 -35 4 -24 2 -30 -11 -30 -9 0 -19 7 -22 15 -10 24 -22 17 -34 -20
-10 -31 -9 -41 9 -77 l21 -42 -269 -271 c-147 -148 -297 -301 -332 -340 -34
-38 -109 -117 -164 -175 -172 -178 -449 -482 -542 -595 -48 -58 -117 -125
-158 -155 -12 -8 -36 -34 -55 -57 -18 -24 -37 -43 -42 -43 -6 0 -29 16 -52 35
-39 32 -44 41 -55 105 -15 83 -35 112 -92 130 -44 15 -49 12 -84 -44 -16 -25
-113 -11 -127 19 -7 15 -67 52 -179 109 -102 53 -169 93 -169 102 0 8 -9 32
-19 53 -20 38 -21 38 -91 44 -64 5 -79 11 -159 62 -69 43 -102 58 -151 66 -66
10 -92 24 -116 58 -9 12 -36 26 -61 33 -37 9 -51 19 -77 57 -44 64 -67 84
-122 104 -27 10 -125 60 -219 112 -93 51 -188 97 -210 100 -22 4 -69 16 -104
26 -35 10 -77 19 -93 19 -17 0 -51 11 -77 25 -69 36 -219 105 -230 105 -5 0
-23 11 -39 25 -25 21 -30 34 -35 86 -3 34 -10 66 -16 72 -6 6 -11 28 -11 50 0
52 -28 174 -51 218 -9 19 -36 51 -59 70 -22 19 -69 59 -103 90 -72 66 -295
217 -382 259 l-60 29 -104 -21 -105 -21 -20 28 c-62 82 -197 185 -243 185 -7
0 -29 34 -48 75 -19 42 -43 88 -54 103 -10 15 -42 73 -70 129 -51 99 -104 163
-137 163 -8 0 -27 6 -42 14 -51 26 -67 25 -170 -9z m5858 -1130 c0 -8 -7 -15
-15 -15 -8 0 -15 7 -15 15 0 8 7 15 15 15 8 0 15 -7 15 -15z m-7454 -1476 c13
-50 12 -69 -5 -69 -11 0 -42 121 -34 133 9 15 25 -10 39 -64z"/>
</g>
</svg>
